<svg xmlns="http://www.w3.org/2000/svg" viewBox="0 0 680 180" fill="none">
  <rect width="680" height="180" rx="16" fill="#0d1117"/>
  <defs><pattern id="g" width="40" height="40" patternUnits="userSpaceOnUse"><path d="M40 0L0 0 0 40" fill="none" stroke="#161b22" stroke-width="1"/></pattern></defs>
  <rect width="680" height="180" fill="url(#g)"/>
  <g transform="translate(30,50)">
    <rect width="80" height="80" rx="14" fill="#1a2332" stroke="#f85149" stroke-width="2"/>
    <rect x="12" y="14" width="36" height="28" rx="2" fill="none" stroke="#f85149" stroke-width="1.5" opacity="0.5"/>
    <circle cx="30" cy="28" r="6" fill="none" stroke="#f85149" stroke-width="1" opacity="0.4"/>
    <circle cx="30" cy="28" r="2" fill="#f85149" opacity="0.5"/>
    <rect x="52" y="18" width="14" height="20" rx="2" fill="none" stroke="#3fb950" stroke-width="1" opacity="0.4"/>
    <path d="M56 26 L58 30 L63 24" stroke="#3fb950" stroke-width="1" fill="none" opacity="0.5"/>
    <path d="M14 52 L26 48 L38 54 L50 46 L62 50 L68 44" stroke="#f85149" stroke-width="1.2" fill="none" opacity="0.4"/>
  </g>
  <text x="135" y="76" font-family="'Segoe UI',system-ui,sans-serif" font-size="36" fill="#e6edf3" font-weight="700" letter-spacing="-1">Mall Anomaly Detection</text>
  <text x="137" y="104" font-family="'Segoe UI',system-ui,sans-serif" font-size="14" fill="#7d8590">&#x89C6;&#x9891;&#x76D1;&#x63A7;&#x5F02;&#x5E38;&#x68C0;&#x6D4B; | YOLOv8 | PyQt5</text>
  <g transform="translate(137,116)">
    <rect width="66" height="22" rx="11" fill="#1a2332" stroke="#f85149" stroke-width="1"/>
    <text x="33" y="15" font-family="monospace" font-size="10" fill="#f85149" text-anchor="middle">Python</text>
    <rect x="76" width="72" height="22" rx="11" fill="#1a2332" stroke="#58a6ff" stroke-width="1"/>
    <text x="112" y="15" font-family="monospace" font-size="10" fill="#58a6ff" text-anchor="middle">YOLOv8</text>
    <rect x="158" width="60" height="22" rx="11" fill="#1a2332" stroke="#3fb950" stroke-width="1"/>
    <text x="188" y="15" font-family="monospace" font-size="10" fill="#3fb950" text-anchor="middle">PyQt5</text>
  </g>
</svg>